PathFileType	4	(X/Y/Z)	64_2_14_p0_0-276_filt_butterworth.trc
DataRate	CameraRate	NumFrames	NumMarkers	Units	OrigDataRate	OrigDataStartFrame	OrigNumFrames
59.0	59.0	5	27	m	59.0	138	276
Frame#	Time	RHip			RKnee			RAnkle			RBigToe			RSmallToe			RHeel			LHip			LKnee			LAnkle			LBigToe			LSmallToe			LHeel			Neck			Head			Nose			RShoulder			RElbow			RWrist			RThumb			RIndex			RPinky			LShoulder			LElbow			LWrist			LThumb			LIndex			LPinky			
		X1	Y1	Z1	X2	Y2	Z2	X3	Y3	Z3	X4	Y4	Z4	X5	Y5	Z5	X6	Y6	Z6	X7	Y7	Z7	X8	Y8	Z8	X9	Y9	Z9	X10	Y10	Z10	X11	Y11	Z11	X12	Y12	Z12	X13	Y13	Z13	X14	Y14	Z14	X15	Y15	Z15	X16	Y16	Z16	X17	Y17	Z17	X18	Y18	Z18	X19	Y19	Z19	X20	Y20	Z20	X21	Y21	Z21	X22	Y22	Z22	X23	Y23	Z23	X24	Y24	Z24	X25	Y25	Z25	X26	Y26	Z26	X27	Y27	Z27	
138	2.3389830508474576	0.31598286805449766	0.7738923981298028	0.6085743230372728	0.29111192762556715	1.0108635432963045	0.9601097401111047	0.251552258122949	1.2574581082175782	1.311615903152112	0.28072233606600167	1.0898755969855054	1.413819591450768	0.33329848009374796	1.1144325290417028	1.3940645359709403	0.20366508627244506	1.3581867025645156	1.3377005500185248	0.12369314243056229	0.7299698546958151	0.61655828074965	0.09706755091110426	0.9403921818738316	0.9769190787811511	0.07869777333280198	1.206922036912521	1.322028405583262	0.136461094581655	1.0177028131162045	1.4105198534957992	0.06025260695191357	1.0803178211161133	1.4016901346619872	0.07033022660200754	1.2812208866942778	1.3498507565913866	0.256234047751676	0.4452019998293415	0.1753958687295634	0.2683427022053433	0.2360198897700553	0.029009157394460673	0.26509080634120413	0.25841331827970876	0.1512386399969013	0.3988215186142095	0.48695252426943436	0.23356423283672734	0.47984230622820534	0.5218776845601877	0.46671347585541406	0.35620500382164694	0.3466595934393952	0.44465065688821825	0.27455250024097383	0.2895310921041629	0.4127989262787168	0.27090955773339753	0.2648626137912877	0.4228361148659878	0.27413086391049907	0.2806021167419732	0.45279541815561997	0.0999774027470984	0.4860902601404402	0.2251642149662232	0.006682445389740064	0.5454676802799149	0.4277702436270567	0.13434643409514707	0.38659858323062934	0.4361863907658723	0.22686414252426373	0.296928478868564	0.42070379305501715	0.22988105442374002	0.26607669616824303	0.42751230484538044	0.19270863629056395	0.31683033478540024	0.45657764277539814
139	2.3559322033898304	0.31766209182901056	0.7724183053395915	0.6116029868989723	0.29127629678175143	1.0086201017436156	0.9584645479714545	0.25049370321756426	1.2590922177116177	1.3116010033130627	0.2798555399131524	1.0895261385682247	1.4134345969989222	0.3320544953210311	1.114157584930408	1.3942877042539634	0.20366522853145447	1.3582660036794474	1.337459364838168	0.12650976189354998	0.7295027841312884	0.618498514120067	0.09755619907902015	0.9400242100491802	0.9753448824142552	0.07885219013604489	1.2062178340352914	1.3220338937249352	0.13641926306160335	1.019032138350228	1.4117154354314692	0.06030896791061036	1.0814043382121374	1.4019116299799297	0.06937990449002288	1.2854093263094368	1.3511564765361546	0.2553863523201575	0.4465188905418376	0.17465247669242048	0.26824500826066855	0.23556357366704336	0.02836741294607905	0.2650089110330787	0.2584078021108793	0.15121969096364793	0.3989608226491659	0.48873758194325206	0.23400528552599556	0.47913782664303944	0.527592525416129	0.4665636334677849	0.35589004370983723	0.3550620651353347	0.4603725699721703	0.27517338979804895	0.29577858785644373	0.44149559956045786	0.26984642390000374	0.2699223683260348	0.4549303468651296	0.2758084644701321	0.29370148130694973	0.4832120442421279	0.09897973868878718	0.48445895876998984	0.2258919190961872	0.007871463935413622	0.5638102995399866	0.4164405823042259	0.1296415239702915	0.3990364288179934	0.4526427776276583	0.22448454281710511	0.28852635699138274	0.4554883368105771	0.22804226067734468	0.2567466207474999	0.467794438498326	0.19351057682526543	0.33294950037295595	0.4933011346960036
140	2.3728813559322037	0.31868400275457637	0.7704408000346816	0.6134981776589823	0.2915490448259477	1.005552883898046	0.9574853067024814	0.2503067527507546	1.2591085033727452	1.3114833226124285	0.2776284600109835	1.0889288731186009	1.4128262008412167	0.3298922760364643	1.1139235981503137	1.394674240751621	0.20367432965985116	1.3583094755760734	1.3370339324565121	0.128801956096958	0.7290623477570466	0.6194690417150319	0.0982280820927362	0.938775683897842	0.9732841823910385	0.07907341466037218	1.205916702678503	1.3218823018058596	0.13638927819562244	1.0206289785860958	1.4126834013117018	0.060402443060921324	1.0827428221327995	1.402834038860743	0.06908898195073708	1.2875017320924618	1.3520424937847069	0.25313875937507946	0.4494020644861578	0.17279426503551729	0.268157789468623	0.23532356990571357	0.029201676986666765	0.2649910894946043	0.2584573621098915	0.1513328497958382	0.39939626455128957	0.4905170625344252	0.23413511983791163	0.4777056184717322	0.5362758249246429	0.46640523973840275	0.35474336091401165	0.36274373352222944	0.4780014862796606	0.27451546477752786	0.3058144272518862	0.46340587795126015	0.2673424839326746	0.28284193443736394	0.4793007392788749	0.27628223335254226	0.3107440524674062	0.5131525174251428	0.09798738701762547	0.48387079368255687	0.22735455138728572	0.007774255028902405	0.5912266068882238	0.4062991217798289	0.12723927905020052	0.4141732556155429	0.46908355335705665	0.22026437263788023	0.2802410993525377	0.4890744189158392	0.22365904507129877	0.25710303576813814	0.504516358440499	0.1938499285737317	0.34703066231337326	0.529693542765631
141	2.389830508474576	0.3191904461943348	0.7686141625495593	0.6147110427478194	0.2920959536727052	1.00245591675017	0.9574752837877488	0.25030140996961475	1.2588457600397631	1.3113645035522243	0.2757807398969743	1.0878736918795877	1.4120431656869539	0.32712895821784466	1.1137197630632083	1.3951744265405497	0.2036806847958003	1.3583295349879312	1.3365139043669998	0.1300183211929466	0.7291818677344601	0.6219570860049466	0.09860873176565396	0.9378197097052652	0.9722876688315316	0.07919681404450077	1.206186342961545	1.321814138401403	0.13641464080720087	1.0217167579980166	1.4130669471253043	0.060441380785409296	1.0833389975330288	1.4041115935319983	0.06890686963053416	1.2887214212001663	1.3523260551290868	0.25016098822135346	0.45312770897194954	0.17105787436605768	0.26816683392673296	0.23521065965921048	0.029949503683194153	0.26504136140481244	0.2587492566694692	0.15118229322547558	0.3999696082193555	0.49163647475477473	0.23419402781234108	0.4749151702307786	0.5506832267513256	0.46532894729240765	0.3534436934612658	0.37353865211952547	0.4986677116735448	0.2736360596816077	0.31637757736516525	0.4816728049916359	0.26434905052874647	0.3029621898943789	0.49847417308855096	0.2748327205137375	0.33406301551600043	0.5411876375949829	0.09717675402819508	0.4839630125751274	0.22901219871565248	0.007157889255005545	0.6189809081262841	0.40230543705494054	0.1293910884270292	0.42707974562448003	0.48949861831435487	0.21853606549346094	0.2775975460988311	0.5196774046802539	0.22110001679199548	0.2672928673647877	0.5369764225739472	0.1945829353896734	0.3532833076538713	0.5634984824554407
142	2.406779661016949	0.32016512395564767	0.767770016540091	0.6153886041846763	0.29292033840046533	1.0002850959302567	0.957905959686407	0.2502985951559875	1.2588937249698544	1.311332527781158	0.27505772317424554	1.086993849589219	1.4114359195516994	0.3249914265407649	1.113633668081666	1.3955617274927885	0.2036683378445457	1.3583166368188209	1.3361994915211268	0.13072881427935432	0.7282008848576564	0.6262543911222659	0.0988578788926367	0.9388195576324316	0.9731596390597221	0.07926335638903015	1.2068869343014397	1.3221926597433356	0.1365797459840954	1.021881373204422	1.4130599544897444	0.06010869839678097	1.0829809642778425	1.4050948343239162	0.06894106959418406	1.2899520740013644	1.3522719459783634	0.24793921273105807	0.4559557605824155	0.17027532713851967	0.2682885274524359	0.23535047051720318	0.030366079054823036	0.26494370218711627	0.25995881082746397	0.15042881766355115	0.3999324894117583	0.49213204878517625	0.2345492742956578	0.47112818773499665	0.5686308998573989	0.461924056710032	0.3547507949123409	0.3866759618594367	0.5214368336559476	0.2762245279251	0.32508398308061887	0.5046387432505874	0.2645145301134586	0.3225816314938824	0.5221382180785373	0.27381763360314065	0.35898082200826636	0.5688783786236683	0.09674429786245153	0.4843528788921437	0.2301451360599664	0.008306026096341233	0.6364804891748734	0.40328257778810384	0.13231536242848047	0.43666166578078863	0.5134235264146454	0.21843512228753817	0.28891097795267756	0.5471253124318736	0.2201727149756155	0.2850399757544646	0.5675905916817732	0.19507652063419442	0.3566705868088401	0.5953004896815783
